<svg width="63" height="8" viewBox="0 0 63 8" fill="none" xmlns="http://www.w3.org/2000/svg">
<path d="M1.13068 7H0.198864L2.29261 1.18182H3.30682L5.40057 7H4.46875L2.82386 2.23864H2.77841L1.13068 7ZM1.28693 4.72159H4.30966V5.46023H1.28693V4.72159ZM7.7358 7.08523C7.38352 7.08523 7.06913 6.99527 6.79261 6.81534C6.51799 6.63352 6.30208 6.375 6.14489 6.03977C5.98958 5.70265 5.91193 5.2983 5.91193 4.8267C5.91193 4.35511 5.99053 3.9517 6.14773 3.61648C6.30682 3.28125 6.52462 3.02462 6.80114 2.84659C7.07765 2.66856 7.3911 2.57955 7.74148 2.57955C8.01231 2.57955 8.23011 2.625 8.39489 2.71591C8.56155 2.80492 8.69034 2.90909 8.78125 3.02841C8.87405 3.14773 8.94602 3.25284 8.99716 3.34375H9.0483V1.18182H9.89773V7H9.06818V6.32102H8.99716C8.94602 6.41383 8.87216 6.51989 8.77557 6.6392C8.68087 6.75852 8.55019 6.86269 8.38352 6.9517C8.21686 7.04072 8.00095 7.08523 7.7358 7.08523ZM7.9233 6.3608C8.16761 6.3608 8.37405 6.2964 8.54261 6.16761C8.71307 6.03693 8.84186 5.85606 8.92898 5.625C9.01799 5.39394 9.0625 5.125 9.0625 4.81818C9.0625 4.51515 9.01894 4.25 8.93182 4.02273C8.8447 3.79545 8.71686 3.61837 8.5483 3.49148C8.37973 3.36458 8.1714 3.30114 7.9233 3.30114C7.66761 3.30114 7.45455 3.36742 7.28409 3.5C7.11364 3.63258 6.98485 3.81345 6.89773 4.04261C6.8125 4.27178 6.76989 4.5303 6.76989 4.81818C6.76989 5.10985 6.81345 5.37216 6.90057 5.60511C6.98769 5.83807 7.11648 6.02273 7.28693 6.15909C7.45928 6.29356 7.6714 6.3608 7.9233 6.3608ZM12.7436 7.08523C12.3913 7.08523 12.0769 6.99527 11.8004 6.81534C11.5258 6.63352 11.3099 6.375 11.1527 6.03977C10.9974 5.70265 10.9197 5.2983 10.9197 4.8267C10.9197 4.35511 10.9983 3.9517 11.1555 3.61648C11.3146 3.28125 11.5324 3.02462 11.8089 2.84659C12.0855 2.66856 12.3989 2.57955 12.7493 2.57955C13.0201 2.57955 13.2379 2.625 13.4027 2.71591C13.5694 2.80492 13.6982 2.90909 13.7891 3.02841C13.8819 3.14773 13.9538 3.25284 14.005 3.34375H14.0561V1.18182H14.9055V7H14.076V6.32102H14.005C13.9538 6.41383 13.88 6.51989 13.7834 6.6392C13.6887 6.75852 13.558 6.86269 13.3913 6.9517C13.2247 7.04072 13.0088 7.08523 12.7436 7.08523ZM12.9311 6.3608C13.1754 6.3608 13.3819 6.2964 13.5504 6.16761C13.7209 6.03693 13.8497 5.85606 13.9368 5.625C14.0258 5.39394 14.0703 5.125 14.0703 4.81818C14.0703 4.51515 14.0268 4.25 13.9396 4.02273C13.8525 3.79545 13.7247 3.61837 13.5561 3.49148C13.3875 3.36458 13.1792 3.30114 12.9311 3.30114C12.6754 3.30114 12.4624 3.36742 12.2919 3.5C12.1214 3.63258 11.9927 3.81345 11.9055 4.04261C11.8203 4.27178 11.7777 4.5303 11.7777 4.81818C11.7777 5.10985 11.8213 5.37216 11.9084 5.60511C11.9955 5.83807 12.1243 6.02273 12.2947 6.15909C12.4671 6.29356 12.6792 6.3608 12.9311 6.3608ZM18.0163 1.9375V1.18182H22.5192V1.9375H20.7038V7H19.8288V1.9375H18.0163ZM22.9929 7V2.63636H23.8139V3.32955H23.8594C23.9389 3.0947 24.0791 2.91004 24.2798 2.77557C24.4825 2.6392 24.7116 2.57102 24.9673 2.57102C25.0204 2.57102 25.0829 2.57292 25.1548 2.5767C25.2287 2.58049 25.2865 2.58523 25.3281 2.59091V3.40341C25.294 3.39394 25.2334 3.38352 25.1463 3.37216C25.0592 3.3589 24.9721 3.35227 24.8849 3.35227C24.6842 3.35227 24.5052 3.39489 24.348 3.48011C24.1927 3.56345 24.0696 3.67992 23.9787 3.82955C23.8878 3.97727 23.8423 4.14583 23.8423 4.33523V7H22.9929ZM27.294 7.09659C27.0175 7.09659 26.7675 7.04545 26.544 6.94318C26.3205 6.83902 26.1435 6.68845 26.0128 6.49148C25.884 6.29451 25.8196 6.05303 25.8196 5.76705C25.8196 5.52083 25.867 5.31818 25.9616 5.15909C26.0563 5 26.1842 4.87405 26.3452 4.78125C26.5062 4.68845 26.6861 4.61837 26.8849 4.57102C27.0838 4.52367 27.2865 4.48769 27.4929 4.46307C27.7543 4.43277 27.9664 4.40814 28.1293 4.3892C28.2921 4.36837 28.4105 4.33523 28.4844 4.28977C28.5582 4.24432 28.5952 4.17045 28.5952 4.06818V4.0483C28.5952 3.80019 28.5251 3.60795 28.3849 3.47159C28.2467 3.33523 28.0402 3.26705 27.7656 3.26705C27.4796 3.26705 27.2543 3.33049 27.0895 3.45739C26.9266 3.58239 26.8139 3.72159 26.7514 3.875L25.9531 3.69318C26.0478 3.42803 26.1861 3.21402 26.3679 3.05114C26.5516 2.88636 26.7628 2.76705 27.0014 2.69318C27.2401 2.61742 27.491 2.57955 27.7543 2.57955C27.9285 2.57955 28.1132 2.60038 28.3082 2.64205C28.5052 2.68182 28.6889 2.75568 28.8594 2.86364C29.0317 2.97159 29.1728 3.12595 29.2827 3.3267C29.3925 3.52557 29.4474 3.78409 29.4474 4.10227V7H28.6179V6.40341H28.5838C28.5289 6.51326 28.4465 6.62121 28.3366 6.72727C28.2268 6.83333 28.0857 6.9214 27.9134 6.99148C27.741 7.06155 27.5346 7.09659 27.294 7.09659ZM27.4787 6.41477C27.7135 6.41477 27.9143 6.36837 28.081 6.27557C28.2495 6.18277 28.3774 6.06155 28.4645 5.91193C28.5535 5.76042 28.598 5.59848 28.598 5.42614V4.86364C28.5677 4.89394 28.509 4.92235 28.4219 4.94886C28.3366 4.97348 28.2391 4.99527 28.1293 5.0142C28.0194 5.03125 27.9124 5.04735 27.8082 5.0625C27.7041 5.07576 27.617 5.08712 27.5469 5.09659C27.3821 5.11742 27.2315 5.15246 27.0952 5.2017C26.9607 5.25095 26.8527 5.32197 26.7713 5.41477C26.6918 5.50568 26.652 5.62689 26.652 5.77841C26.652 5.98864 26.7296 6.14773 26.8849 6.25568C27.0402 6.36174 27.2382 6.41477 27.4787 6.41477ZM31.4283 4.40909V7H30.5788V2.63636H31.3942V3.34659H31.4482C31.5485 3.11553 31.7057 2.92992 31.9197 2.78977C32.1357 2.64962 32.4074 2.57955 32.7351 2.57955C33.0324 2.57955 33.2929 2.64205 33.5163 2.76705C33.7398 2.89015 33.9131 3.07386 34.0362 3.31818C34.1593 3.5625 34.2209 3.86458 34.2209 4.22443V7H33.3714V4.3267C33.3714 4.01042 33.2891 3.76326 33.1243 3.58523C32.9595 3.4053 32.7332 3.31534 32.4453 3.31534C32.2483 3.31534 32.0732 3.35795 31.9197 3.44318C31.7682 3.52841 31.648 3.65341 31.5589 3.81818C31.4718 3.98106 31.4283 4.17803 31.4283 4.40909ZM38.63 3.7017L37.8601 3.83807C37.8279 3.73958 37.7768 3.64583 37.7067 3.55682C37.6385 3.4678 37.5457 3.39489 37.4283 3.33807C37.3108 3.28125 37.1641 3.25284 36.9879 3.25284C36.7474 3.25284 36.5466 3.30682 36.3857 3.41477C36.2247 3.52083 36.1442 3.65814 36.1442 3.8267C36.1442 3.97254 36.1982 4.08996 36.3061 4.17898C36.4141 4.26799 36.5883 4.34091 36.8288 4.39773L37.522 4.55682C37.9235 4.64962 38.2228 4.79261 38.4197 4.9858C38.6167 5.17898 38.7152 5.42992 38.7152 5.73864C38.7152 6 38.6394 6.23295 38.4879 6.4375C38.3383 6.64015 38.129 6.79924 37.8601 6.91477C37.593 7.0303 37.2834 7.08807 36.9311 7.08807C36.4425 7.08807 36.0438 6.9839 35.7351 6.77557C35.4264 6.56534 35.237 6.26705 35.1669 5.88068L35.9879 5.75568C36.0391 5.9697 36.1442 6.13163 36.3033 6.24148C36.4624 6.34943 36.6697 6.40341 36.9254 6.40341C37.2038 6.40341 37.4264 6.34564 37.593 6.23011C37.7597 6.11269 37.843 5.9697 37.843 5.80114C37.843 5.66477 37.7919 5.55019 37.6896 5.45739C37.5893 5.36458 37.4349 5.29451 37.2266 5.24716L36.4879 5.08523C36.0807 4.99242 35.7796 4.8447 35.5845 4.64205C35.3913 4.43939 35.2947 4.18277 35.2947 3.87216C35.2947 3.61458 35.3667 3.3892 35.5107 3.19602C35.6546 3.00284 35.8535 2.85227 36.1072 2.74432C36.361 2.63447 36.6518 2.57955 36.9794 2.57955C37.451 2.57955 37.8222 2.68182 38.093 2.88636C38.3639 3.08902 38.5429 3.3608 38.63 3.7017ZM40.919 7.09659C40.6425 7.09659 40.3925 7.04545 40.169 6.94318C39.9455 6.83902 39.7685 6.68845 39.6378 6.49148C39.509 6.29451 39.4446 6.05303 39.4446 5.76705C39.4446 5.52083 39.492 5.31818 39.5866 5.15909C39.6813 5 39.8092 4.87405 39.9702 4.78125C40.1312 4.68845 40.3111 4.61837 40.5099 4.57102C40.7088 4.52367 40.9115 4.48769 41.1179 4.46307C41.3793 4.43277 41.5914 4.40814 41.7543 4.3892C41.9171 4.36837 42.0355 4.33523 42.1094 4.28977C42.1832 4.24432 42.2202 4.17045 42.2202 4.06818V4.0483C42.2202 3.80019 42.1501 3.60795 42.0099 3.47159C41.8717 3.33523 41.6652 3.26705 41.3906 3.26705C41.1046 3.26705 40.8793 3.33049 40.7145 3.45739C40.5516 3.58239 40.4389 3.72159 40.3764 3.875L39.5781 3.69318C39.6728 3.42803 39.8111 3.21402 39.9929 3.05114C40.1766 2.88636 40.3878 2.76705 40.6264 2.69318C40.8651 2.61742 41.116 2.57955 41.3793 2.57955C41.5535 2.57955 41.7382 2.60038 41.9332 2.64205C42.1302 2.68182 42.3139 2.75568 42.4844 2.86364C42.6567 2.97159 42.7978 3.12595 42.9077 3.3267C43.0175 3.52557 43.0724 3.78409 43.0724 4.10227V7H42.2429V6.40341H42.2088C42.1539 6.51326 42.0715 6.62121 41.9616 6.72727C41.8518 6.83333 41.7107 6.9214 41.5384 6.99148C41.366 7.06155 41.1596 7.09659 40.919 7.09659ZM41.1037 6.41477C41.3385 6.41477 41.5393 6.36837 41.706 6.27557C41.8745 6.18277 42.0024 6.06155 42.0895 5.91193C42.1785 5.76042 42.223 5.59848 42.223 5.42614V4.86364C42.1927 4.89394 42.134 4.92235 42.0469 4.94886C41.9616 4.97348 41.8641 4.99527 41.7543 5.0142C41.6444 5.03125 41.5374 5.04735 41.4332 5.0625C41.3291 5.07576 41.242 5.08712 41.1719 5.09659C41.0071 5.11742 40.8565 5.15246 40.7202 5.2017C40.5857 5.25095 40.4777 5.32197 40.3963 5.41477C40.3168 5.50568 40.277 5.62689 40.277 5.77841C40.277 5.98864 40.3546 6.14773 40.5099 6.25568C40.6652 6.36174 40.8632 6.41477 41.1037 6.41477ZM46.0419 7.08807C45.6196 7.08807 45.2559 6.99242 44.951 6.80114C44.648 6.60795 44.415 6.34186 44.2521 6.00284C44.0893 5.66383 44.0078 5.27557 44.0078 4.83807C44.0078 4.39489 44.0911 4.00379 44.2578 3.66477C44.4245 3.32386 44.6593 3.05777 44.9624 2.86648C45.2654 2.67519 45.6224 2.57955 46.0334 2.57955C46.3648 2.57955 46.6603 2.6411 46.9197 2.7642C47.1792 2.88542 47.3885 3.05587 47.5476 3.27557C47.7086 3.49527 47.8042 3.75189 47.8345 4.04545H47.0078C46.9624 3.84091 46.8582 3.66477 46.6953 3.51705C46.5343 3.36932 46.3184 3.29545 46.0476 3.29545C45.8108 3.29545 45.6035 3.35795 45.4254 3.48295C45.2493 3.60606 45.112 3.7822 45.0135 4.01136C44.915 4.23864 44.8658 4.50758 44.8658 4.81818C44.8658 5.13636 44.9141 5.41098 45.0107 5.64205C45.1072 5.87311 45.2436 6.05208 45.4197 6.17898C45.5978 6.30587 45.8071 6.36932 46.0476 6.36932C46.2086 6.36932 46.3544 6.33996 46.4851 6.28125C46.6177 6.22064 46.7285 6.13447 46.8175 6.02273C46.9084 5.91098 46.9718 5.77652 47.0078 5.61932H47.8345C47.8042 5.90152 47.7124 6.15341 47.5589 6.375C47.4055 6.59659 47.2 6.77083 46.9425 6.89773C46.6868 7.02462 46.3866 7.08807 46.0419 7.08807ZM50.7798 2.63636V3.31818H48.3963V2.63636H50.7798ZM49.0355 1.59091H49.8849V5.71875C49.8849 5.88352 49.9096 6.00758 49.9588 6.09091C50.008 6.17235 50.0715 6.22822 50.1491 6.25852C50.2287 6.28693 50.3149 6.30114 50.4077 6.30114C50.4759 6.30114 50.5355 6.2964 50.5866 6.28693C50.6378 6.27746 50.6776 6.26989 50.706 6.2642L50.8594 6.96591C50.8101 6.98485 50.7401 7.00379 50.6491 7.02273C50.5582 7.04356 50.4446 7.05492 50.3082 7.05682C50.0848 7.06061 49.8764 7.02083 49.6832 6.9375C49.4901 6.85417 49.3338 6.72538 49.2145 6.55114C49.0952 6.37689 49.0355 6.15814 49.0355 5.89489V1.59091ZM51.7195 7V2.63636H52.5689V7H51.7195ZM52.1484 1.96307C52.0007 1.96307 51.8738 1.91383 51.7678 1.81534C51.6636 1.71496 51.6115 1.59564 51.6115 1.45739C51.6115 1.31723 51.6636 1.19792 51.7678 1.09943C51.8738 0.999053 52.0007 0.948864 52.1484 0.948864C52.2962 0.948864 52.4221 0.999053 52.5263 1.09943C52.6323 1.19792 52.6854 1.31723 52.6854 1.45739C52.6854 1.59564 52.6323 1.71496 52.5263 1.81534C52.4221 1.91383 52.2962 1.96307 52.1484 1.96307ZM55.5497 7.08807C55.1406 7.08807 54.7836 6.99432 54.4787 6.80682C54.1738 6.61932 53.937 6.35701 53.7685 6.01989C53.5999 5.68277 53.5156 5.28883 53.5156 4.83807C53.5156 4.38542 53.5999 3.98958 53.7685 3.65057C53.937 3.31155 54.1738 3.0483 54.4787 2.8608C54.7836 2.6733 55.1406 2.57955 55.5497 2.57955C55.9588 2.57955 56.3158 2.6733 56.6207 2.8608C56.9257 3.0483 57.1624 3.31155 57.331 3.65057C57.4995 3.98958 57.5838 4.38542 57.5838 4.83807C57.5838 5.28883 57.4995 5.68277 57.331 6.01989C57.1624 6.35701 56.9257 6.61932 56.6207 6.80682C56.3158 6.99432 55.9588 7.08807 55.5497 7.08807ZM55.5526 6.375C55.8177 6.375 56.0374 6.30492 56.2116 6.16477C56.3859 6.02462 56.5147 5.83807 56.598 5.60511C56.6832 5.37216 56.7259 5.11553 56.7259 4.83523C56.7259 4.55682 56.6832 4.30114 56.598 4.06818C56.5147 3.83333 56.3859 3.64489 56.2116 3.50284C56.0374 3.3608 55.8177 3.28977 55.5526 3.28977C55.2855 3.28977 55.0639 3.3608 54.8878 3.50284C54.7135 3.64489 54.5838 3.83333 54.4986 4.06818C54.4152 4.30114 54.3736 4.55682 54.3736 4.83523C54.3736 5.11553 54.4152 5.37216 54.4986 5.60511C54.5838 5.83807 54.7135 6.02462 54.8878 6.16477C55.0639 6.30492 55.2855 6.375 55.5526 6.375ZM59.3814 4.40909V7H58.532V2.63636H59.3473V3.34659H59.4013C59.5017 3.11553 59.6589 2.92992 59.8729 2.78977C60.0888 2.64962 60.3606 2.57955 60.6882 2.57955C60.9856 2.57955 61.246 2.64205 61.4695 2.76705C61.6929 2.89015 61.8662 3.07386 61.9893 3.31818C62.1125 3.5625 62.174 3.86458 62.174 4.22443V7H61.3246V4.3267C61.3246 4.01042 61.2422 3.76326 61.0774 3.58523C60.9126 3.4053 60.6863 3.31534 60.3984 3.31534C60.2015 3.31534 60.0263 3.35795 59.8729 3.44318C59.7214 3.52841 59.6011 3.65341 59.5121 3.81818C59.425 3.98106 59.3814 4.17803 59.3814 4.40909Z" fill="#D9D9D9"/>
</svg>
