<svg width="28" height="8" viewBox="0 0 28 8" fill="none" xmlns="http://www.w3.org/2000/svg">
<path d="M0.639205 6V0.181818H2.76989C3.18277 0.181818 3.52462 0.25 3.79545 0.386364C4.06629 0.520833 4.26894 0.703598 4.40341 0.934659C4.53788 1.16383 4.60511 1.42235 4.60511 1.71023C4.60511 1.95265 4.56061 2.1572 4.47159 2.32386C4.38258 2.48864 4.26326 2.62121 4.11364 2.72159C3.96591 2.82008 3.80303 2.89205 3.625 2.9375V2.99432C3.81818 3.00379 4.00663 3.06629 4.19034 3.18182C4.37595 3.29545 4.52936 3.45739 4.65057 3.66761C4.77178 3.87784 4.83239 4.13352 4.83239 4.43466C4.83239 4.73201 4.76231 4.99905 4.62216 5.2358C4.4839 5.47064 4.26989 5.6572 3.98011 5.79545C3.69034 5.93182 3.32008 6 2.86932 6H0.639205ZM1.51705 5.24716H2.78409C3.20455 5.24716 3.50568 5.16572 3.6875 5.00284C3.86932 4.83996 3.96023 4.63636 3.96023 4.39205C3.96023 4.20833 3.91383 4.03977 3.82102 3.88636C3.72822 3.73295 3.59564 3.6108 3.4233 3.51989C3.25284 3.42898 3.05019 3.38352 2.81534 3.38352H1.51705V5.24716ZM1.51705 2.69886H2.69318C2.89015 2.69886 3.06723 2.66098 3.22443 2.58523C3.38352 2.50947 3.50947 2.40341 3.60227 2.26705C3.69697 2.12879 3.74432 1.96591 3.74432 1.77841C3.74432 1.53788 3.66004 1.33617 3.49148 1.1733C3.32292 1.01042 3.06439 0.928977 2.71591 0.928977H1.51705V2.69886ZM8.5696 4.19034V1.63636H9.42188V6H8.58665V5.24432H8.54119C8.44081 5.47727 8.27983 5.6714 8.05824 5.8267C7.83854 5.98011 7.56487 6.05682 7.23722 6.05682C6.95691 6.05682 6.70881 5.99527 6.4929 5.87216C6.27888 5.74716 6.11032 5.5625 5.98722 5.31818C5.866 5.07386 5.8054 4.77178 5.8054 4.41193V1.63636H6.65483V4.30966C6.65483 4.60701 6.73722 4.84375 6.90199 5.01989C7.06676 5.19602 7.28078 5.28409 7.54403 5.28409C7.70313 5.28409 7.86127 5.24432 8.01847 5.16477C8.17756 5.08523 8.30919 4.96496 8.41335 4.80398C8.51941 4.64299 8.5715 4.43845 8.5696 4.19034ZM12.1967 6.08523C11.8445 6.08523 11.5301 5.99527 11.2536 5.81534C10.9789 5.63352 10.763 5.375 10.6058 5.03977C10.4505 4.70265 10.3729 4.2983 10.3729 3.8267C10.3729 3.35511 10.4515 2.9517 10.6087 2.61648C10.7678 2.28125 10.9856 2.02462 11.2621 1.84659C11.5386 1.66856 11.852 1.57955 12.2024 1.57955C12.4732 1.57955 12.6911 1.625 12.8558 1.71591C13.0225 1.80492 13.1513 1.90909 13.2422 2.02841C13.335 2.14773 13.407 2.25284 13.4581 2.34375H13.5092V0.181818H14.3587V6H13.5291V5.32102H13.4581C13.407 5.41383 13.3331 5.51989 13.2365 5.6392C13.1418 5.75852 13.0111 5.86269 12.8445 5.9517C12.6778 6.04072 12.4619 6.08523 12.1967 6.08523ZM12.3842 5.3608C12.6286 5.3608 12.835 5.2964 13.0036 5.16761C13.174 5.03693 13.3028 4.85606 13.3899 4.625C13.4789 4.39394 13.5234 4.125 13.5234 3.81818C13.5234 3.51515 13.4799 3.25 13.3928 3.02273C13.3056 2.79545 13.1778 2.61837 13.0092 2.49148C12.8407 2.36458 12.6323 2.30114 12.3842 2.30114C12.1286 2.30114 11.9155 2.36742 11.745 2.5C11.5746 2.63258 11.4458 2.81345 11.3587 3.04261C11.2734 3.27178 11.2308 3.5303 11.2308 3.81818C11.2308 4.10985 11.2744 4.37216 11.3615 4.60511C11.4486 4.83807 11.5774 5.02273 11.7479 5.15909C11.9202 5.29356 12.1323 5.3608 12.3842 5.3608ZM17.4006 7.72727C17.054 7.72727 16.7557 7.68182 16.5057 7.59091C16.2576 7.5 16.0549 7.37973 15.8977 7.23011C15.7405 7.08049 15.6231 6.91667 15.5455 6.73864L16.2756 6.4375C16.3267 6.52083 16.3949 6.6089 16.4801 6.7017C16.5672 6.7964 16.6847 6.87689 16.8324 6.94318C16.982 7.00947 17.1742 7.04261 17.4091 7.04261C17.7311 7.04261 17.9972 6.96402 18.2074 6.80682C18.4176 6.65152 18.5227 6.40341 18.5227 6.0625V5.20455H18.4688C18.4176 5.29735 18.3438 5.40057 18.2472 5.5142C18.1525 5.62784 18.0218 5.72633 17.8551 5.80966C17.6884 5.89299 17.4716 5.93466 17.2045 5.93466C16.8598 5.93466 16.5492 5.85417 16.2727 5.69318C15.9981 5.5303 15.7803 5.29072 15.6193 4.97443C15.4602 4.65625 15.3807 4.26515 15.3807 3.80114C15.3807 3.33712 15.4593 2.93939 15.6165 2.60795C15.7756 2.27652 15.9934 2.02273 16.2699 1.84659C16.5464 1.66856 16.8598 1.57955 17.2102 1.57955C17.4811 1.57955 17.6998 1.625 17.8665 1.71591C18.0331 1.80492 18.1629 1.90909 18.2557 2.02841C18.3504 2.14773 18.4233 2.25284 18.4744 2.34375H18.5369V1.63636H19.3693V6.09659C19.3693 6.47159 19.2822 6.77936 19.108 7.01989C18.9337 7.26042 18.6979 7.43845 18.4006 7.55398C18.1051 7.66951 17.7718 7.72727 17.4006 7.72727ZM17.392 5.23011C17.6364 5.23011 17.8428 5.1733 18.0114 5.05966C18.1818 4.94413 18.3106 4.77936 18.3977 4.56534C18.4867 4.34943 18.5312 4.09091 18.5312 3.78977C18.5312 3.49621 18.4877 3.23769 18.4006 3.0142C18.3134 2.79072 18.1856 2.61648 18.017 2.49148C17.8485 2.36458 17.6402 2.30114 17.392 2.30114C17.1364 2.30114 16.9233 2.36742 16.7528 2.5C16.5824 2.63068 16.4536 2.80871 16.3665 3.03409C16.2813 3.25947 16.2386 3.51136 16.2386 3.78977C16.2386 4.07576 16.2822 4.3267 16.3693 4.54261C16.4564 4.75852 16.5852 4.92708 16.7557 5.0483C16.928 5.16951 17.1402 5.23011 17.392 5.23011ZM22.3892 6.08807C21.9593 6.08807 21.589 5.99621 21.2784 5.8125C20.9697 5.62689 20.7311 5.36648 20.5625 5.03125C20.3958 4.69413 20.3125 4.29924 20.3125 3.84659C20.3125 3.39962 20.3958 3.00568 20.5625 2.66477C20.7311 2.32386 20.9659 2.05777 21.267 1.86648C21.5701 1.67519 21.9242 1.57955 22.3295 1.57955C22.5758 1.57955 22.8144 1.62027 23.0455 1.7017C23.2765 1.78314 23.4839 1.91098 23.6676 2.08523C23.8513 2.25947 23.9962 2.4858 24.1023 2.7642C24.2083 3.04072 24.2614 3.37689 24.2614 3.77273V4.07386H20.7926V3.4375H23.429C23.429 3.21402 23.3835 3.0161 23.2926 2.84375C23.2017 2.66951 23.0739 2.5322 22.9091 2.43182C22.7462 2.33144 22.5549 2.28125 22.3352 2.28125C22.0966 2.28125 21.8883 2.33996 21.7102 2.45739C21.5341 2.57292 21.3977 2.72443 21.3011 2.91193C21.2064 3.09754 21.1591 3.29924 21.1591 3.51705V4.0142C21.1591 4.30587 21.2102 4.55398 21.3125 4.75852C21.4167 4.96307 21.5616 5.11932 21.7472 5.22727C21.9328 5.33333 22.1496 5.38636 22.3977 5.38636C22.5587 5.38636 22.7055 5.36364 22.8381 5.31818C22.9706 5.27083 23.0852 5.20076 23.1818 5.10795C23.2784 5.01515 23.3523 4.90057 23.4034 4.7642L24.2074 4.90909C24.143 5.14583 24.0275 5.35322 23.8608 5.53125C23.696 5.70739 23.4886 5.8447 23.2386 5.94318C22.9905 6.03977 22.7074 6.08807 22.3892 6.08807ZM27.2408 1.63636V2.31818H24.8572V1.63636H27.2408ZM25.4964 0.590909H26.3459V4.71875C26.3459 4.88352 26.3705 5.00758 26.4197 5.09091C26.469 5.17235 26.5324 5.22822 26.6101 5.25852C26.6896 5.28693 26.7758 5.30114 26.8686 5.30114C26.9368 5.30114 26.9964 5.2964 27.0476 5.28693C27.0987 5.27746 27.1385 5.26989 27.1669 5.2642L27.3203 5.96591C27.2711 5.98485 27.201 6.00379 27.1101 6.02273C27.0192 6.04356 26.9055 6.05492 26.7692 6.05682C26.5457 6.06061 26.3374 6.02083 26.1442 5.9375C25.951 5.85417 25.7947 5.72538 25.6754 5.55114C25.5561 5.37689 25.4964 5.15814 25.4964 4.89489V0.590909Z" fill="#D9D9D9"/>
</svg>
