<svg width="30" height="30" viewBox="0 0 30 30" fill="none" xmlns="http://www.w3.org/2000/svg">
<path fill-rule="evenodd" clip-rule="evenodd" d="M11.0156 1.639C8.96924 2.53806 7.2385 3.30364 7.16953 3.34032C7.10063 3.377 7.0149 3.47122 6.9791 3.5498C6.89355 3.73759 6.89033 11.798 6.97559 12.388C7.14639 13.5697 7.68492 14.6501 8.52527 15.4971C9.03457 16.0103 14.3211 19.8403 14.6924 19.965C14.9076 20.0373 14.9752 20.0373 15.1904 19.9656C15.5624 19.8415 20.8471 16.0129 21.3575 15.4977C22.1985 14.6489 22.7365 13.5693 22.9072 12.388C22.9946 11.7832 22.9891 3.73724 22.9011 3.54423C22.8179 3.36148 23.0839 3.48675 18.7317 1.58134C16.3476 0.537551 15.0461 -0.00285971 14.9231 1.13804e-05C14.814 0.00253091 13.189 0.684152 11.0156 1.639ZM11.4561 2.59343L7.96436 4.12068L7.98123 8.28376L7.99805 12.4468L8.19193 13.0035C8.42707 13.6785 8.79756 14.2896 9.24715 14.7442C9.61277 15.1139 14.7982 18.8858 14.9414 18.8862C15.0849 18.8867 20.2734 15.1136 20.637 14.7443C21.0862 14.2882 21.4563 13.6767 21.6909 13.0035L21.8848 12.4468L21.9016 8.2837L21.9185 4.1205L18.4332 2.59331L14.9479 1.06612L11.4561 2.59343ZM11.9824 3.40056C10.4355 4.07884 9.11719 4.68517 9.05273 4.74804C8.93801 4.85989 8.93555 4.93941 8.93555 8.53736C8.93555 11.9392 8.94357 12.2386 9.04336 12.564C9.21961 13.1389 9.53748 13.6796 9.92455 14.0629C10.1218 14.2583 11.2852 15.1404 12.5098 16.0232C14.405 17.3893 14.7669 17.6284 14.9414 17.6291C15.117 17.6299 15.4495 17.4113 17.2559 16.1077C18.416 15.2704 19.4915 14.4866 19.6459 14.3657C20.1727 13.9534 20.6176 13.281 20.8396 12.5615C20.9392 12.2384 20.9473 11.939 20.9473 8.53736C20.9473 4.9397 20.9448 4.85984 20.8301 4.74722C20.6786 4.59851 15.1161 2.16306 14.9334 2.16546C14.8573 2.16652 13.5293 2.72228 11.9824 3.40056ZM12.4219 4.3503L9.99023 5.41771L9.97301 8.58071C9.96111 10.7592 9.97641 11.8532 10.0221 12.0953C10.1091 12.5562 10.37 13.0382 10.7112 13.3682C11.0573 13.7031 14.8225 16.4227 14.9414 16.4237C15.0602 16.4247 18.8238 13.7056 19.1774 13.3633C19.497 13.0539 19.7677 12.5562 19.8603 12.1081C19.9021 11.9056 19.9182 10.7244 19.908 8.61007L19.8926 5.41782L17.4609 4.34907C16.1235 3.76126 14.9897 3.28091 14.9414 3.28161C14.8931 3.28232 13.7593 3.76325 12.4219 4.3503ZM17.678 6.03698C17.6202 6.07062 16.7302 7.36185 15.7002 8.90632C14.6702 10.4508 13.8146 11.7144 13.7989 11.7144C13.7831 11.7144 13.3996 11.4376 12.9465 11.0992C12.2946 10.6123 12.0829 10.484 11.9318 10.484C11.602 10.484 11.3642 10.8166 11.4499 11.1581C11.476 11.2619 11.8189 11.5542 12.6185 12.1542C13.8128 13.0504 13.9418 13.1108 14.2299 12.909C14.304 12.8571 15.2855 11.4327 16.4109 9.74374C17.9838 7.38318 18.457 6.63153 18.457 6.49384C18.457 6.1295 17.9899 5.85552 17.678 6.03698ZM27.9096 13.1464C27.5526 13.2581 27.2571 13.4581 27.0724 13.713C26.9831 13.8363 26.6647 14.5116 26.3648 15.2135C26.065 15.9155 25.8104 16.5014 25.7991 16.5155C25.7879 16.5297 25.664 16.4855 25.5238 16.4174C25.114 16.2183 24.6175 16.1433 24.198 16.2172C23.6885 16.3069 23.3017 16.5069 22.7746 16.9533C21.9681 17.6361 21.0989 18.169 20.0977 18.5946C19.1269 19.0072 18.4802 19.6462 17.9584 20.7086C17.5978 21.4426 17.4618 22.0455 17.4199 23.0963L17.3853 23.9606L17.1483 24.0244C16.8482 24.1052 16.5543 24.3966 16.4712 24.6957C16.3891 24.9914 16.3825 29.0056 16.4637 29.2885C16.5282 29.5136 16.7664 29.789 17.0039 29.913C17.1343 29.9811 17.6972 29.9955 20.1973 29.9947C23.2297 29.9937 23.2327 29.9936 23.4624 29.8629C23.6058 29.7813 23.7437 29.6347 23.8286 29.4738C23.9643 29.2166 23.9648 29.2062 23.9636 27.0128C23.9623 24.9331 23.9557 24.7957 23.8445 24.5505L23.7267 24.2908L25.4752 22.529C26.6196 21.3758 27.3075 20.6356 27.4665 20.3863C27.6001 20.1768 28.1356 19.0694 28.6565 17.9254C30.0107 14.9512 30 14.9775 30 14.6096C30 14.4352 29.9765 14.2926 29.9477 14.2926C29.919 14.2926 29.8775 14.2209 29.8556 14.1333C29.7548 13.7319 29.2836 13.2907 28.8036 13.1481C28.4558 13.0448 28.2359 13.0444 27.9096 13.1464ZM0.904394 13.2314C0.568828 13.3838 0.26291 13.6692 0.121172 13.9621C0.0273633 14.1559 0 14.3266 0 14.7181V15.2237L1.08668 17.6146C1.68434 18.9295 2.2827 20.1768 2.41629 20.3863C2.57531 20.6356 3.26332 21.3759 4.40766 22.529L6.15615 24.2908L6.03832 24.5505C5.92711 24.7957 5.92049 24.9331 5.91926 27.0128C5.91797 29.2062 5.91855 29.2166 6.0542 29.4738C6.1391 29.6347 6.27703 29.7813 6.42041 29.8629C6.65016 29.9936 6.65314 29.9937 9.68555 29.9947C12.1856 29.9955 12.7485 29.9811 12.8789 29.913C13.1036 29.7956 13.3323 29.531 13.41 29.2985C13.5001 29.029 13.5015 25.0193 13.4116 24.6957C13.3286 24.3966 13.0346 24.1052 12.7345 24.0244L12.4975 23.9606L12.4629 23.0963C12.421 22.0455 12.285 21.4426 11.9244 20.7086C11.3804 19.601 10.7803 19.0279 9.63978 18.5267C8.61932 18.0782 8.08805 17.7388 6.76758 16.692C6.12246 16.1805 5.25926 16.0577 4.49297 16.3684C4.27318 16.4575 4.08574 16.5213 4.07643 16.5101C4.06711 16.499 3.83027 15.9493 3.55014 15.2886C3.27 14.628 2.97562 13.9763 2.896 13.8403C2.74213 13.5777 2.38512 13.3005 2.0567 13.1886C1.75365 13.0853 1.17908 13.1067 0.904394 13.2314ZM1.30998 14.1749C1.12846 14.2481 0.996094 14.4649 0.996094 14.689C0.996094 14.9009 2.96379 19.3005 3.29373 19.8264C3.39598 19.9893 4.33682 20.9861 5.38447 22.0416L7.28936 23.9605H9.36562H11.442L11.4095 23.1256C11.3721 22.1609 11.2867 21.7851 10.9471 21.0894C10.7631 20.7123 10.6032 20.491 10.2885 20.178C9.92918 19.8205 9.79389 19.731 9.28711 19.5157C8.25457 19.0768 7.17867 18.4144 6.4265 17.7546C6.23895 17.59 6.00164 17.4109 5.89916 17.3564C5.64023 17.2189 5.07123 17.221 4.79063 17.3605L4.57143 17.4694L4.69887 17.6534C4.76895 17.7547 5.45426 18.4725 6.22172 19.2486C7.51324 20.5546 7.61719 20.6752 7.61719 20.8666C7.61719 21.1505 7.38439 21.3824 7.09957 21.3824C6.90609 21.3824 6.79693 21.2892 5.6066 20.108C3.68232 18.1985 3.61178 18.097 2.66525 15.8746C2.38389 15.2139 2.10627 14.5797 2.04832 14.4652C1.89686 14.1658 1.61098 14.0534 1.30998 14.1749ZM28.0767 14.1874C27.909 14.2716 27.8559 14.3759 27.2176 15.8746C26.5971 17.3315 26.3389 17.8373 25.9612 18.3355C25.8025 18.545 25.0695 19.3163 24.3324 20.0494C23.1315 21.2439 22.9723 21.3824 22.8002 21.3824C22.5379 21.3824 22.2656 21.1112 22.2656 20.8498C22.2656 20.6803 22.4164 20.5072 23.6611 19.2486C24.4286 18.4725 25.115 17.753 25.1866 17.6497L25.3168 17.4618L25.1242 17.3586C24.9986 17.2914 24.7992 17.2548 24.5508 17.2535C24.1002 17.2512 23.9349 17.3387 23.1152 18.0141C22.4582 18.5555 21.5777 19.0845 20.6909 19.4705C20.0878 19.7332 19.9622 19.8143 19.5943 20.1793C19.2787 20.4922 19.1203 20.7113 18.9357 21.0894C18.5961 21.7851 18.5108 22.1609 18.4733 23.1256L18.4409 23.9605H20.5164H22.5919L24.469 22.0709C25.5392 20.9936 26.4413 20.0346 26.5675 19.8403C26.9196 19.2982 28.8867 14.9206 28.8867 14.6792C28.8867 14.283 28.4341 14.0081 28.0767 14.1874ZM6.97266 27.0074V28.9996H9.69727H12.4219V27.0074V25.0152H9.69727H6.97266V27.0074ZM17.4609 27.0074V28.9996H20.1855H22.9102V27.0074V25.0152H20.1855H17.4609V27.0074ZM10.1219 26.5963C9.83027 26.8257 9.87217 27.2797 10.2006 27.4496C10.414 27.5599 10.9746 27.559 11.1894 27.4478C11.517 27.2785 11.5457 26.7875 11.2407 26.5739C11.0351 26.4299 10.3151 26.4443 10.1219 26.5963ZM18.6421 26.5739C18.3371 26.7875 18.3659 27.2785 18.6934 27.4478C18.9082 27.559 19.4688 27.5599 19.6822 27.4496C20.0106 27.2797 20.0525 26.8257 19.7609 26.5963C19.5677 26.4443 18.8477 26.4299 18.6421 26.5739Z" fill="#D9D9D9"/>
</svg>
