<svg width="30" height="30" viewBox="0 0 30 30" fill="none" xmlns="http://www.w3.org/2000/svg">
<g clip-path="url(#clip0_77_301)">
<path fill-rule="evenodd" clip-rule="evenodd" d="M10.8105 0.0822422C10.3737 0.220992 9.94254 0.479449 9.64289 0.782262C9.31623 1.11232 8.99789 1.66222 8.93397 2.00681L8.89318 2.22654H7.80791C6.57088 2.22654 6.37436 2.26597 6.00914 2.58748C5.71049 2.85033 5.58504 3.13134 5.53107 3.65822L5.49164 4.04295L3.55148 4.04423C1.44715 4.04564 1.46631 4.04283 1.29592 4.37599C1.24834 4.4691 1.23047 7.91734 1.23047 17.0205C1.23047 30.5559 1.21178 29.7596 1.53311 29.9303C1.64086 29.9876 3.87727 29.9993 12.0703 29.9857L22.4707 29.9684L22.9688 29.8361C24.4755 29.436 25.6093 28.7888 26.6379 27.742C28.8871 25.4527 29.3983 21.9701 27.9086 19.0857C26.8284 16.9944 24.7208 15.4853 22.4121 15.1502L21.9434 15.0822L21.9141 13.8546C21.8943 13.025 21.8609 12.5852 21.8111 12.4981C21.6088 12.1445 21.1378 12.0759 20.8549 12.3587L20.6836 12.53V13.7932V15.0563L20.5518 15.082C20.4792 15.0961 20.2222 15.1386 19.9805 15.1765C18.6026 15.3924 17.1088 16.1769 16.0329 17.2496C14.5794 18.6987 13.8185 20.503 13.8188 22.5C13.819 24.0842 14.2384 25.4457 15.1355 26.7752C15.4815 27.288 16.2769 28.1311 16.749 28.4854C16.9311 28.6221 17.1051 28.7552 17.1357 28.7811C17.1663 28.807 13.8771 28.8281 9.82617 28.8281H2.46094V17.0215V5.21482H3.97682H5.4927L5.53184 5.61209C5.60127 6.31673 6.00498 6.82064 6.62109 6.97152C6.80531 7.01664 8.34147 7.03093 11.7188 7.01904L16.5527 7.00193L16.7911 6.87431C17.1081 6.70463 17.4386 6.33033 17.5153 6.05394C17.5495 5.93078 17.5776 5.69166 17.5778 5.52244L17.5781 5.21482H19.1309H20.6836V6.53769V7.86056L20.8549 8.03183C20.9921 8.16912 21.0772 8.2031 21.2834 8.2031C21.4938 8.2031 21.5719 8.17047 21.7127 8.02357L21.8848 7.84404L21.9036 6.28041C21.9241 4.58851 21.8963 4.36398 21.6411 4.1633C21.4937 4.04734 21.4164 4.04295 19.5331 4.04295H17.5781L17.5775 3.67673C17.5771 3.41482 17.5376 3.22709 17.4388 3.01755C17.2742 2.66845 17.1122 2.50931 16.7578 2.34865C16.5224 2.24189 16.3746 2.229 15.3769 2.22783L14.2597 2.22654L14.1535 1.88963C13.9573 1.26707 13.3937 0.579234 12.855 0.30484C12.2766 0.0101719 11.3538 -0.0902578 10.8105 0.0822422ZM11.3379 1.21117C10.9927 1.2905 10.8024 1.38173 10.5991 1.56543C10.2514 1.87955 10.1289 2.12277 10.0747 2.60617C9.98314 3.42214 9.98654 3.42062 8.20313 3.45701L6.76758 3.48631L6.75164 4.57673C6.73898 5.44756 6.75205 5.68064 6.81668 5.73431C6.87639 5.78382 8.13357 5.79754 11.608 5.78646L16.3184 5.77146L16.3342 4.61423L16.3501 3.45701H14.9994C13.2111 3.45701 13.122 3.41752 13.0506 2.59275C13.0017 2.02685 12.6436 1.51492 12.1582 1.3167C11.9484 1.23097 11.5017 1.17349 11.3379 1.21117ZM21.0579 9.60595C20.8707 9.68494 20.6836 9.95576 20.6836 10.1475C20.6836 10.5534 21.0132 10.8314 21.407 10.7575C21.7492 10.6933 21.9429 10.3469 21.8443 9.97586C21.7649 9.67744 21.3505 9.4825 21.0579 9.60595ZM5.85486 10.9525C5.55018 11.2572 5.62676 11.74 6.00856 11.9212C6.17637 12.0008 6.85606 12.0117 11.6562 12.0117C17.5301 12.0117 17.3846 12.019 17.5997 11.7119C17.786 11.446 17.6808 11.0131 17.3938 10.8647C17.2574 10.7942 16.3642 10.7812 11.6293 10.7812H6.02613L5.85486 10.9525ZM5.85486 15.2298C5.55018 15.5346 5.62676 16.0173 6.00856 16.1985C6.17502 16.2775 6.72498 16.289 10.3213 16.2889C14.1283 16.2889 14.4591 16.281 14.6484 16.1864C14.9215 16.05 15.0374 15.7304 14.9178 15.444C14.7469 15.035 15.0295 15.0586 10.295 15.0586H6.02613L5.85486 15.2298ZM20.0391 16.3994C18.8304 16.6654 17.846 17.2012 16.9586 18.0762C16.2878 18.7376 15.9802 19.1651 15.605 19.957C14.9814 21.2736 14.8532 22.7659 15.2405 24.1992C15.3969 24.7776 15.9163 25.8303 16.284 26.314C17.9889 28.5571 21.0135 29.3949 23.6133 28.3444C24.3478 28.0476 24.9401 27.6624 25.5458 27.0879C26.4629 26.218 27.0323 25.2719 27.3479 24.0941C27.4819 23.5941 27.5007 23.4085 27.5037 22.5586C27.5064 21.7519 27.4859 21.5082 27.3795 21.0869C26.8015 18.7978 25.0822 17.0616 22.793 16.4551C22.1366 16.2812 20.7076 16.2523 20.0391 16.3994ZM20.8828 17.7187C20.7301 17.8715 20.6836 17.9671 20.6836 18.1289C20.6836 18.2586 20.6554 18.3398 20.6104 18.3399C20.479 18.3399 19.8386 18.68 19.6515 18.8489C19.1724 19.2815 18.9191 19.8634 18.9196 20.5302C18.9203 21.4176 19.3363 22.0035 20.3174 22.4985L20.6836 22.6833V24.1967V25.7102L20.4346 25.6544C20.2976 25.6237 20.0231 25.5079 19.8245 25.397C19.3747 25.1458 19.1504 25.1375 18.9243 25.3636C18.6935 25.5944 18.6558 25.7866 18.7881 26.0574C18.8794 26.2443 18.9843 26.3237 19.4531 26.5611C19.8492 26.7616 20.107 26.8526 20.3467 26.8769C20.6822 26.9107 20.6836 26.9117 20.6836 27.105C20.6836 27.5048 20.9362 27.7734 21.3122 27.7734C21.6391 27.7734 21.9141 27.4264 21.9141 27.0136C21.9141 26.9025 21.9441 26.8359 21.9941 26.8359C22.0381 26.8359 22.2582 26.7438 22.4832 26.6312C23.4304 26.1574 24.0322 25.0962 23.945 24.0539C23.9006 23.5223 23.6061 22.9093 23.2277 22.5604C23.0015 22.352 22.4413 22.0442 22.0166 21.8951C21.9237 21.8625 21.9141 21.7519 21.9141 20.7147C21.9141 19.4286 21.9026 19.4553 22.3301 19.745C22.7766 20.0476 23.2216 19.9548 23.3849 19.5252C23.4681 19.3062 23.3999 19.0858 23.1858 18.8822C22.9719 18.6788 22.5211 18.4402 22.1746 18.3469C21.9612 18.2894 21.9322 18.2584 21.8679 18.0178C21.8153 17.8213 21.7473 17.722 21.6064 17.6361C21.3216 17.4624 21.1157 17.4859 20.8828 17.7187ZM5.99461 19.3951C5.54344 19.5768 5.58006 20.3404 6.04775 20.5034C6.29678 20.5902 11.6329 20.5902 11.8819 20.5034C12.3608 20.3365 12.385 19.5698 11.917 19.3919C11.7302 19.3209 6.17133 19.3239 5.99461 19.3951ZM20.3992 19.8332C19.9931 20.2957 20.037 20.8536 20.5069 21.201L20.6836 21.3316V20.4803C20.6836 20.012 20.66 19.6289 20.6311 19.6289C20.6022 19.6289 20.4979 19.7208 20.3992 19.8332ZM21.9141 24.375C21.9141 25.0195 21.9313 25.5469 21.9525 25.5469C21.9736 25.5469 22.0785 25.4801 22.1855 25.3984C22.6333 25.0569 22.8408 24.3776 22.65 23.8779C22.55 23.6162 22.1469 23.2031 21.9914 23.2031C21.9299 23.2031 21.9141 23.4434 21.9141 24.375ZM5.93783 23.7266C5.67328 23.8879 5.58574 24.2585 5.74289 24.552C5.89307 24.8327 6.01547 24.8437 8.96484 24.8437C11.92 24.8437 12.0364 24.8331 12.1887 24.5486C12.2762 24.385 12.2777 24.0747 12.1916 23.9139C12.0327 23.617 11.9928 23.6133 8.95313 23.6135C6.26197 23.6137 6.11397 23.6192 5.93783 23.7266Z" fill="#D9D9D9"/>
</g>
<defs>
<clipPath id="clip0_77_301">
<rect width="30" height="30" fill="white"/>
</clipPath>
</defs>
</svg>
