<svg width="32" height="7" viewBox="0 0 32 7" fill="none" xmlns="http://www.w3.org/2000/svg">
<path d="M5.47159 2.07386H4.58523C4.55114 1.88447 4.48769 1.7178 4.39489 1.57386C4.30208 1.42992 4.18845 1.30777 4.05398 1.20739C3.91951 1.10701 3.76894 1.03125 3.60227 0.980114C3.4375 0.928977 3.26231 0.903409 3.0767 0.903409C2.74148 0.903409 2.44129 0.987689 2.17614 1.15625C1.91288 1.32481 1.70455 1.57197 1.55114 1.89773C1.39962 2.22348 1.32386 2.62121 1.32386 3.09091C1.32386 3.56439 1.39962 3.96402 1.55114 4.28977C1.70455 4.61553 1.91383 4.86174 2.17898 5.02841C2.44413 5.19508 2.74242 5.27841 3.07386 5.27841C3.25758 5.27841 3.43182 5.25379 3.59659 5.20455C3.76326 5.15341 3.91383 5.0786 4.0483 4.98011C4.18277 4.88163 4.2964 4.76136 4.3892 4.61932C4.4839 4.47538 4.54924 4.31061 4.58523 4.125L5.47159 4.12784C5.42424 4.41383 5.33239 4.67708 5.19602 4.91761C5.06155 5.15625 4.88826 5.36269 4.67614 5.53693C4.46591 5.70928 4.22538 5.8428 3.95455 5.9375C3.68371 6.0322 3.38826 6.07955 3.06818 6.07955C2.56439 6.07955 2.11553 5.96023 1.72159 5.72159C1.32765 5.48106 1.01705 5.13731 0.789773 4.69034C0.564394 4.24337 0.451705 3.71023 0.451705 3.09091C0.451705 2.4697 0.565341 1.93655 0.792614 1.49148C1.01989 1.04451 1.33049 0.701704 1.72443 0.463068C2.11837 0.222538 2.56629 0.102273 3.06818 0.102273C3.37689 0.102273 3.66477 0.14678 3.93182 0.235795C4.20076 0.322917 4.44223 0.451704 4.65625 0.622159C4.87027 0.79072 5.04735 0.997159 5.1875 1.24148C5.32765 1.4839 5.42235 1.76136 5.47159 2.07386ZM8.2919 6.08807C7.88281 6.08807 7.5258 5.99432 7.22088 5.80682C6.91596 5.61932 6.67921 5.35701 6.51065 5.01989C6.34209 4.68277 6.25781 4.28883 6.25781 3.83807C6.25781 3.38542 6.34209 2.98958 6.51065 2.65057C6.67921 2.31155 6.91596 2.0483 7.22088 1.8608C7.5258 1.6733 7.88281 1.57955 8.2919 1.57955C8.70099 1.57955 9.058 1.6733 9.36293 1.8608C9.66785 2.0483 9.90459 2.31155 10.0732 2.65057C10.2417 2.98958 10.326 3.38542 10.326 3.83807C10.326 4.28883 10.2417 4.68277 10.0732 5.01989C9.90459 5.35701 9.66785 5.61932 9.36293 5.80682C9.058 5.99432 8.70099 6.08807 8.2919 6.08807ZM8.29474 5.375C8.5599 5.375 8.77959 5.30492 8.95384 5.16477C9.12808 5.02462 9.25687 4.83807 9.3402 4.60511C9.42543 4.37216 9.46804 4.11553 9.46804 3.83523C9.46804 3.55682 9.42543 3.30114 9.3402 3.06818C9.25687 2.83333 9.12808 2.64489 8.95384 2.50284C8.77959 2.3608 8.5599 2.28977 8.29474 2.28977C8.0277 2.28977 7.80611 2.3608 7.62997 2.50284C7.45573 2.64489 7.32599 2.83333 7.24077 3.06818C7.15743 3.30114 7.11577 3.55682 7.11577 3.83523C7.11577 4.11553 7.15743 4.37216 7.24077 4.60511C7.32599 4.83807 7.45573 5.02462 7.62997 5.16477C7.80611 5.30492 8.0277 5.375 8.29474 5.375ZM14.0384 4.19034V1.63636H14.8906V6H14.0554V5.24432H14.0099C13.9096 5.47727 13.7486 5.6714 13.527 5.8267C13.3073 5.98011 13.0336 6.05682 12.706 6.05682C12.4257 6.05682 12.1776 5.99527 11.9616 5.87216C11.7476 5.74716 11.5791 5.5625 11.456 5.31818C11.3348 5.07386 11.2741 4.77178 11.2741 4.41193V1.63636H12.1236V4.30966C12.1236 4.60701 12.206 4.84375 12.3707 5.01989C12.5355 5.19602 12.7495 5.28409 13.0128 5.28409C13.1719 5.28409 13.33 5.24432 13.4872 5.16477C13.6463 5.08523 13.7779 4.96496 13.8821 4.80398C13.9882 4.64299 14.0402 4.43845 14.0384 4.19034ZM16.032 6V1.63636H16.853V2.32955H16.8984C16.978 2.0947 17.1181 1.91004 17.3189 1.77557C17.5215 1.6392 17.7507 1.57102 18.0064 1.57102C18.0594 1.57102 18.1219 1.57292 18.1939 1.5767C18.2678 1.58049 18.3255 1.58523 18.3672 1.59091V2.40341C18.3331 2.39394 18.2725 2.38352 18.1854 2.37216C18.0982 2.3589 18.0111 2.35227 17.924 2.35227C17.7232 2.35227 17.5443 2.39489 17.3871 2.48011C17.2318 2.56345 17.1087 2.67992 17.0178 2.82955C16.9268 2.97727 16.8814 3.14583 16.8814 3.33523V6H16.032ZM22.3722 2.7017L21.6023 2.83807C21.5701 2.73958 21.5189 2.64583 21.4489 2.55682C21.3807 2.4678 21.2879 2.39489 21.1705 2.33807C21.053 2.28125 20.9063 2.25284 20.7301 2.25284C20.4896 2.25284 20.2888 2.30682 20.1278 2.41477C19.9669 2.52083 19.8864 2.65814 19.8864 2.8267C19.8864 2.97254 19.9403 3.08996 20.0483 3.17898C20.1563 3.26799 20.3305 3.34091 20.571 3.39773L21.2642 3.55682C21.6657 3.64962 21.965 3.79261 22.1619 3.9858C22.3589 4.17898 22.4574 4.42992 22.4574 4.73864C22.4574 5 22.3816 5.23295 22.2301 5.4375C22.0805 5.64015 21.8712 5.79924 21.6023 5.91477C21.3352 6.0303 21.0256 6.08807 20.6733 6.08807C20.1847 6.08807 19.786 5.9839 19.4773 5.77557C19.1686 5.56534 18.9792 5.26705 18.9091 4.88068L19.7301 4.75568C19.7813 4.9697 19.8864 5.13163 20.0455 5.24148C20.2045 5.34943 20.4119 5.40341 20.6676 5.40341C20.946 5.40341 21.1686 5.34564 21.3352 5.23011C21.5019 5.11269 21.5852 4.9697 21.5852 4.80114C21.5852 4.66477 21.5341 4.55019 21.4318 4.45739C21.3314 4.36458 21.1771 4.29451 20.9688 4.24716L20.2301 4.08523C19.8229 3.99242 19.5218 3.8447 19.3267 3.64205C19.1335 3.43939 19.0369 3.18277 19.0369 2.87216C19.0369 2.61458 19.1089 2.3892 19.2528 2.19602C19.3968 2.00284 19.5956 1.85227 19.8494 1.74432C20.1032 1.63447 20.3939 1.57955 20.7216 1.57955C21.1932 1.57955 21.5644 1.68182 21.8352 1.88636C22.1061 2.08902 22.285 2.3608 22.3722 2.7017ZM25.272 6.08807C24.8421 6.08807 24.4718 5.99621 24.1612 5.8125C23.8525 5.62689 23.6139 5.36648 23.4453 5.03125C23.2786 4.69413 23.1953 4.29924 23.1953 3.84659C23.1953 3.39962 23.2786 3.00568 23.4453 2.66477C23.6139 2.32386 23.8487 2.05777 24.1499 1.86648C24.4529 1.67519 24.8071 1.57955 25.2124 1.57955C25.4586 1.57955 25.6972 1.62027 25.9283 1.7017C26.1593 1.78314 26.3667 1.91098 26.5504 2.08523C26.7341 2.25947 26.879 2.4858 26.9851 2.7642C27.0911 3.04072 27.1442 3.37689 27.1442 3.77273V4.07386H23.6754V3.4375H26.3118C26.3118 3.21402 26.2663 3.0161 26.1754 2.84375C26.0845 2.66951 25.9567 2.5322 25.7919 2.43182C25.629 2.33144 25.4377 2.28125 25.218 2.28125C24.9794 2.28125 24.7711 2.33996 24.593 2.45739C24.4169 2.57292 24.2805 2.72443 24.1839 2.91193C24.0893 3.09754 24.0419 3.29924 24.0419 3.51705V4.0142C24.0419 4.30587 24.093 4.55398 24.1953 4.75852C24.2995 4.96307 24.4444 5.11932 24.63 5.22727C24.8156 5.33333 25.0324 5.38636 25.2805 5.38636C25.4415 5.38636 25.5883 5.36364 25.7209 5.31818C25.8535 5.27083 25.968 5.20076 26.0646 5.10795C26.1612 5.01515 26.2351 4.90057 26.2862 4.7642L27.0902 4.90909C27.0258 5.14583 26.9103 5.35322 26.7436 5.53125C26.5788 5.70739 26.3714 5.8447 26.1214 5.94318C25.8733 6.03977 25.5902 6.08807 25.272 6.08807ZM31.3565 2.7017L30.5866 2.83807C30.5545 2.73958 30.5033 2.64583 30.4332 2.55682C30.3651 2.4678 30.2723 2.39489 30.1548 2.33807C30.0374 2.28125 29.8906 2.25284 29.7145 2.25284C29.474 2.25284 29.2732 2.30682 29.1122 2.41477C28.9512 2.52083 28.8707 2.65814 28.8707 2.8267C28.8707 2.97254 28.9247 3.08996 29.0327 3.17898C29.1406 3.26799 29.3149 3.34091 29.5554 3.39773L30.2486 3.55682C30.6501 3.64962 30.9493 3.79261 31.1463 3.9858C31.3433 4.17898 31.4418 4.42992 31.4418 4.73864C31.4418 5 31.366 5.23295 31.2145 5.4375C31.0649 5.64015 30.8556 5.79924 30.5866 5.91477C30.3196 6.0303 30.0099 6.08807 29.6577 6.08807C29.169 6.08807 28.7704 5.9839 28.4616 5.77557C28.1529 5.56534 27.9635 5.26705 27.8935 4.88068L28.7145 4.75568C28.7656 4.9697 28.8707 5.13163 29.0298 5.24148C29.1889 5.34943 29.3963 5.40341 29.652 5.40341C29.9304 5.40341 30.1529 5.34564 30.3196 5.23011C30.4863 5.11269 30.5696 4.9697 30.5696 4.80114C30.5696 4.66477 30.5185 4.55019 30.4162 4.45739C30.3158 4.36458 30.1615 4.29451 29.9531 4.24716L29.2145 4.08523C28.8073 3.99242 28.5062 3.8447 28.3111 3.64205C28.1179 3.43939 28.0213 3.18277 28.0213 2.87216C28.0213 2.61458 28.0933 2.3892 28.2372 2.19602C28.3812 2.00284 28.58 1.85227 28.8338 1.74432C29.0876 1.63447 29.3783 1.57955 29.706 1.57955C30.1776 1.57955 30.5488 1.68182 30.8196 1.88636C31.0904 2.08902 31.2694 2.3608 31.3565 2.7017Z" fill="#D9D9D9"/>
</svg>
