<svg width="30" height="30" viewBox="0 0 30 30" fill="none" xmlns="http://www.w3.org/2000/svg">
<path fill-rule="evenodd" clip-rule="evenodd" d="M6.23326 2.69395C4.69811 3.09643 3.43061 4.37706 3.07119 5.88866C2.94592 6.41565 2.94434 7.34747 3.0678 7.86502C3.25752 8.66038 3.73266 9.47952 4.3261 10.0342L4.62387 10.3125H3.58325C2.58 10.3125 2.53155 10.318 2.23688 10.4648C1.89106 10.6372 1.63219 10.9632 1.52491 11.3617C1.30641 12.1731 1.99278 13.0664 2.83471 13.0664C3.05631 13.0664 3.11901 13.0947 3.25612 13.2568C3.34471 13.3615 3.48545 13.5923 3.56895 13.7695C3.69709 14.0417 3.72071 14.1738 3.72071 14.6191C3.72071 15.0645 3.69709 15.1966 3.56895 15.4687C3.48545 15.646 3.34471 15.8767 3.25612 15.9814C3.11901 16.1436 3.05631 16.1719 2.83471 16.1719C2.11096 16.1719 1.50733 16.7951 1.50106 17.5488C1.4976 17.9694 1.62774 18.2711 1.93911 18.5643L2.15608 18.7687L1.75172 19.085C1.22057 19.5006 0.815628 20.0061 0.494476 20.6543C0.137992 21.3739 -0.000113853 21.9537 0.000413491 22.7291C0.00176115 24.7904 1.22608 26.4999 3.20924 27.2095L3.72071 27.3926L16.2598 27.41C25.3637 27.4226 28.8606 27.4094 29.0243 27.362C29.3102 27.279 29.7512 26.8769 29.8904 26.5723C30.0205 26.2874 30.0347 25.6847 29.9178 25.4049C29.8034 25.1311 29.453 24.7585 29.193 24.6342C29.0729 24.5768 28.805 24.5147 28.5976 24.4963L28.2206 24.4629L27.9687 24.0943C27.6309 23.6001 27.5184 23.1956 27.5512 22.5932C27.5801 22.0615 27.7056 21.7211 28.0414 21.2637C28.249 20.9808 28.257 20.9765 28.5713 20.9765C28.963 20.9765 29.2118 20.8773 29.5213 20.5977C29.8561 20.2952 30 19.9687 30 19.5117C30 19.0547 29.8561 18.7282 29.5213 18.4257C29.147 18.0875 28.9917 18.0469 28.0744 18.0469H27.2582L27.6521 17.6514C28.1211 17.1804 28.4913 16.5782 28.6958 15.9538C28.91 15.2993 28.9477 14.2706 28.7815 13.6134C28.5555 12.7198 28.0306 11.8764 27.3496 11.3127C26.8723 10.9175 26.0549 10.5227 25.4514 10.3957L24.9751 10.2956L25.0324 10.0881C25.2436 9.32301 24.5436 8.44264 23.721 8.43877C23.4858 8.43766 23.4256 8.41106 23.2869 8.24706C23.1983 8.14235 23.0581 7.91161 22.9754 7.73436C22.8495 7.46448 22.8248 7.32637 22.8236 6.88475C22.8225 6.43762 22.8454 6.30842 22.974 6.03514C23.0575 5.8579 23.1983 5.62721 23.2869 5.52245C23.4256 5.35844 23.4858 5.33184 23.721 5.33073C24.3195 5.32791 24.868 4.87598 25.0233 4.2577C25.1693 3.67709 24.898 3.06397 24.3582 2.75442L24.0527 2.57922L15.3516 2.58186C7.05053 2.58444 6.63123 2.58959 6.23326 2.69395ZM6.84557 3.51667C5.82768 3.68958 4.93705 4.26104 4.42741 5.06834C4.03899 5.68358 3.90182 6.15637 3.90024 6.88475C3.8986 7.62163 4.06143 8.16286 4.46702 8.76924C4.80188 9.26987 5.15842 9.59178 5.6836 9.86758C6.53936 10.317 5.75584 10.2832 15.3127 10.2832H23.8578L23.9992 10.1188C24.1723 9.91762 24.1789 9.73247 24.0205 9.53108L23.9004 9.37838L15.3633 9.36192L6.82618 9.34545L6.49026 9.21725C5.63953 8.89252 5.07785 8.2528 4.88555 7.38948C4.56422 5.94719 5.58323 4.61407 7.14399 4.43495C7.42272 4.40295 7.74879 4.39516 7.86862 4.41766C8.29799 4.49823 8.4603 4.9044 8.17647 5.18817C8.04985 5.31485 7.98118 5.33202 7.6012 5.33202C6.80221 5.33202 6.25067 5.6053 5.95571 6.14723C5.54297 6.90555 5.80459 7.80251 6.5625 8.22749L6.88477 8.40819L14.5752 8.42389C18.805 8.43251 22.2656 8.42911 22.2656 8.41633C22.2656 8.4035 22.2002 8.2501 22.1202 8.07532C21.7949 7.36499 21.7956 6.40522 22.1218 5.69114C22.2009 5.51805 22.2656 5.36647 22.2656 5.35422C22.2656 5.34204 19.3898 5.33202 15.875 5.33202C11.896 5.33202 9.44473 5.31075 9.37916 5.27565C9.32127 5.24465 9.24153 5.14118 9.20198 5.04567C9.11262 4.82999 9.21241 4.58225 9.4336 4.47034C9.54926 4.4118 11.0856 4.39604 16.7389 4.3954L23.8978 4.39452L24.0192 4.24012C24.1789 4.03709 24.1727 3.85235 23.9992 3.65073L23.8578 3.48631L15.4885 3.47829C10.8854 3.47383 6.99604 3.49112 6.84557 3.51667ZM2.71623 11.2489C2.5561 11.3143 2.40235 11.5326 2.40235 11.6946C2.40235 11.7636 2.45702 11.8896 2.52381 11.9745L2.64522 12.1289L13.5834 12.1294C20.7285 12.1296 24.6536 12.1505 24.9023 12.1895C26.2605 12.4027 27.1934 13.6343 27.0072 14.9687C26.8764 15.9065 26.2021 16.677 25.2393 16.9887L25.0195 17.0598V17.5241C25.0195 18.0486 25.0058 18.0377 25.4923 17.8947C26.6363 17.5585 27.5293 16.6564 27.8647 15.498C28.0093 14.9988 27.9977 14.148 27.8395 13.6523C27.4869 12.5475 26.592 11.6832 25.4271 11.3225C25.1324 11.2313 24.2365 11.2226 13.9746 11.2106C7.7093 11.2032 2.7869 11.22 2.71623 11.2489ZM4.4393 13.4326C4.75477 14.2113 4.7509 15.0267 4.42793 15.8215L4.28555 16.1719H11.5471H18.8086V15.9082V15.6445H17.2624C15.8389 15.6445 15.7054 15.6358 15.5807 15.5349C15.3976 15.3866 15.3952 15.0476 15.5758 14.8669L15.7063 14.7363L20.0553 14.7191C22.4473 14.7096 24.4915 14.7176 24.598 14.737C24.9499 14.8009 25.0195 14.9315 25.0195 15.5273C25.0195 16.1262 25.0408 16.1468 25.4068 15.9027C26.2499 15.3407 26.358 14.2694 25.6436 13.5561C25.1099 13.0233 26.0913 13.0664 14.4981 13.0664H4.29094L4.4393 13.4326ZM19.7461 18.7207C19.7461 20.4126 19.7637 21.7969 19.7851 21.7969C19.8066 21.7969 20.2482 21.5763 20.7666 21.3067C21.2849 21.037 21.7703 20.7973 21.8453 20.7739C21.9509 20.741 22.2164 20.8512 23.0263 21.2642C23.6009 21.5572 24.0867 21.7969 24.1059 21.7969C24.125 21.7969 24.1406 20.4126 24.1406 18.7207V15.6445H21.9434H19.7461V18.7207ZM2.52381 17.2638C2.36409 17.4668 2.3703 17.6515 2.54373 17.8531L2.68518 18.0176L10.7469 18.0328L18.8086 18.0481V17.5787V17.1094H10.7269H2.64522L2.52381 17.2638ZM4.19157 18.991C3.33914 19.1151 2.68225 19.4564 2.01498 20.1218C1.63213 20.5035 1.49373 20.6925 1.30319 21.0937C1.00078 21.7305 0.913656 22.1084 0.917992 22.7637C0.929417 24.4781 2.02284 25.8989 3.72276 26.4082C4.05282 26.5072 4.75336 26.5138 16.303 26.529C29.878 26.5469 28.8639 26.5763 29.038 26.1597C29.1188 25.9663 29.1173 25.9294 29.0213 25.7328C28.9475 25.582 28.8547 25.4966 28.7109 25.4476C28.5626 25.397 27.6418 25.3768 25.3857 25.3744C22.346 25.3711 22.2626 25.368 22.1484 25.2539C22.0759 25.1814 22.0313 25.0586 22.0313 24.9316C22.0313 24.8047 22.0759 24.6819 22.1484 24.6094C22.2618 24.496 22.3437 24.4922 24.668 24.4922C25.9893 24.4922 27.0703 24.4781 27.0703 24.4609C27.0703 24.4437 27.0042 24.2992 26.9234 24.1398C26.5042 23.3126 26.5042 22.1561 26.9234 21.3289C27.0042 21.1695 27.0703 21.025 27.0703 21.0078C27.0703 20.9906 26.6089 20.9765 26.0449 20.9765H25.0195V21.8848C25.0195 22.7148 25.0095 22.803 24.9023 22.9101C24.6891 23.1234 24.484 23.061 23.1796 22.3858L21.9404 21.7443L20.6989 22.3858C19.9495 22.7731 19.3895 23.0273 19.286 23.0273C19.1917 23.0273 19.0523 22.9769 18.9762 22.9154C18.8433 22.8078 18.8371 22.7678 18.818 21.8889L18.798 20.9743L11.5816 20.9901C3.46776 21.0078 4.09694 20.9716 3.55149 21.4518C2.60819 22.2821 2.84965 23.8033 4.00787 24.3276L4.30664 24.4629L12.595 24.4785L20.8832 24.4942L21.0178 24.6206C21.1894 24.7818 21.1979 25.0912 21.0352 25.2539C20.9191 25.37 20.8399 25.3711 12.5665 25.3711C4.3193 25.3711 4.21061 25.3696 3.86075 25.2517C3.02596 24.9705 2.45022 24.3912 2.16422 23.5447C2.0618 23.2414 2.04305 23.0723 2.06139 22.6172C2.08043 22.1427 2.11102 22.0024 2.26852 21.6666C2.5936 20.9736 3.20713 20.432 3.91483 20.2134C4.27963 20.1007 4.48453 20.0976 11.5491 20.0976H18.8086V19.5117V18.9258L11.6748 18.9329C7.75119 18.9368 4.38375 18.963 4.19157 18.991ZM25.0195 19.5117V20.0976H26.7792C28.7721 20.0976 28.8858 20.0785 29.0361 19.7189C29.1125 19.5361 29.1125 19.4873 29.0361 19.3045C28.8858 18.9449 28.7721 18.9258 26.7792 18.9258H25.0195V19.5117Z" fill="#D9D9D9"/>
</svg>
