<svg width="38" height="7" viewBox="0 0 38 7" fill="none" xmlns="http://www.w3.org/2000/svg">
<path d="M1.51705 0.181818V6H0.639205V0.181818H1.51705ZM3.5767 3.40909V6H2.72727V1.63636H3.54261V2.34659H3.59659C3.69697 2.11553 3.85417 1.92992 4.06818 1.78977C4.28409 1.64962 4.55587 1.57955 4.88352 1.57955C5.18087 1.57955 5.44129 1.64205 5.66477 1.76705C5.88826 1.89015 6.06155 2.07386 6.18466 2.31818C6.30777 2.5625 6.36932 2.86458 6.36932 3.22443V6H5.51989V3.3267C5.51989 3.01042 5.4375 2.76326 5.27273 2.58523C5.10795 2.4053 4.88163 2.31534 4.59375 2.31534C4.39678 2.31534 4.22159 2.35795 4.06818 2.44318C3.91667 2.52841 3.7964 2.65341 3.70739 2.81818C3.62027 2.98106 3.5767 3.17803 3.5767 3.40909ZM10.7784 2.7017L10.0085 2.83807C9.97633 2.73958 9.92519 2.64583 9.85511 2.55682C9.78693 2.4678 9.69413 2.39489 9.5767 2.33807C9.45928 2.28125 9.3125 2.25284 9.13636 2.25284C8.89583 2.25284 8.69508 2.30682 8.53409 2.41477C8.37311 2.52083 8.29261 2.65814 8.29261 2.8267C8.29261 2.97254 8.34659 3.08996 8.45455 3.17898C8.5625 3.26799 8.73674 3.34091 8.97727 3.39773L9.67045 3.55682C10.072 3.64962 10.3712 3.79261 10.5682 3.9858C10.7652 4.17898 10.8636 4.42992 10.8636 4.73864C10.8636 5 10.7879 5.23295 10.6364 5.4375C10.4867 5.64015 10.2775 5.79924 10.0085 5.91477C9.74148 6.0303 9.43182 6.08807 9.07955 6.08807C8.59091 6.08807 8.19223 5.9839 7.88352 5.77557C7.57481 5.56534 7.38542 5.26705 7.31534 4.88068L8.13636 4.75568C8.1875 4.9697 8.29261 5.13163 8.4517 5.24148C8.6108 5.34943 8.81818 5.40341 9.07386 5.40341C9.35227 5.40341 9.57481 5.34564 9.74148 5.23011C9.90814 5.11269 9.99148 4.9697 9.99148 4.80114C9.99148 4.66477 9.94034 4.55019 9.83807 4.45739C9.73769 4.36458 9.58333 4.29451 9.375 4.24716L8.63636 4.08523C8.22917 3.99242 7.92803 3.8447 7.73295 3.64205C7.53977 3.43939 7.44318 3.18277 7.44318 2.87216C7.44318 2.61458 7.51515 2.3892 7.65909 2.19602C7.80303 2.00284 8.00189 1.85227 8.25568 1.74432C8.50947 1.63447 8.80019 1.57955 9.12784 1.57955C9.59943 1.57955 9.97064 1.68182 10.2415 1.88636C10.5123 2.08902 10.6913 2.3608 10.7784 2.7017ZM14.5618 4.19034V1.63636H15.4141V6H14.5788V5.24432H14.5334C14.433 5.47727 14.272 5.6714 14.0504 5.8267C13.8307 5.98011 13.5571 6.05682 13.2294 6.05682C12.9491 6.05682 12.701 5.99527 12.4851 5.87216C12.2711 5.74716 12.1025 5.5625 11.9794 5.31818C11.8582 5.07386 11.7976 4.77178 11.7976 4.41193V1.63636H12.647V4.30966C12.647 4.60701 12.7294 4.84375 12.8942 5.01989C13.0589 5.19602 13.273 5.28409 13.5362 5.28409C13.6953 5.28409 13.8535 5.24432 14.0107 5.16477C14.1697 5.08523 14.3014 4.96496 14.4055 4.80398C14.5116 4.64299 14.5637 4.43845 14.5618 4.19034ZM16.5554 6V1.63636H17.3764V2.32955H17.4219C17.5014 2.0947 17.6416 1.91004 17.8423 1.77557C18.045 1.6392 18.2741 1.57102 18.5298 1.57102C18.5829 1.57102 18.6454 1.57292 18.7173 1.5767C18.7912 1.58049 18.849 1.58523 18.8906 1.59091V2.40341C18.8565 2.39394 18.7959 2.38352 18.7088 2.37216C18.6217 2.3589 18.5346 2.35227 18.4474 2.35227C18.2467 2.35227 18.0677 2.39489 17.9105 2.48011C17.7552 2.56345 17.6321 2.67992 17.5412 2.82955C17.4503 2.97727 17.4048 3.14583 17.4048 3.33523V6H16.5554ZM20.8565 6.09659C20.58 6.09659 20.33 6.04545 20.1065 5.94318C19.883 5.83902 19.706 5.68845 19.5753 5.49148C19.4465 5.29451 19.3821 5.05303 19.3821 4.76705C19.3821 4.52083 19.4295 4.31818 19.5241 4.15909C19.6188 4 19.7467 3.87405 19.9077 3.78125C20.0687 3.68845 20.2486 3.61837 20.4474 3.57102C20.6463 3.52367 20.849 3.48769 21.0554 3.46307C21.3168 3.43277 21.5289 3.40814 21.6918 3.3892C21.8546 3.36837 21.973 3.33523 22.0469 3.28977C22.1207 3.24432 22.1577 3.17045 22.1577 3.06818V3.0483C22.1577 2.80019 22.0876 2.60795 21.9474 2.47159C21.8092 2.33523 21.6027 2.26705 21.3281 2.26705C21.0421 2.26705 20.8168 2.33049 20.652 2.45739C20.4891 2.58239 20.3764 2.72159 20.3139 2.875L19.5156 2.69318C19.6103 2.42803 19.7486 2.21402 19.9304 2.05114C20.1141 1.88636 20.3253 1.76705 20.5639 1.69318C20.8026 1.61742 21.0535 1.57955 21.3168 1.57955C21.491 1.57955 21.6757 1.60038 21.8707 1.64205C22.0677 1.68182 22.2514 1.75568 22.4219 1.86364C22.5942 1.97159 22.7353 2.12595 22.8452 2.3267C22.955 2.52557 23.0099 2.78409 23.0099 3.10227V6H22.1804V5.40341H22.1463C22.0914 5.51326 22.009 5.62121 21.8991 5.72727C21.7893 5.83333 21.6482 5.9214 21.4759 5.99148C21.3035 6.06155 21.0971 6.09659 20.8565 6.09659ZM21.0412 5.41477C21.276 5.41477 21.4768 5.36837 21.6435 5.27557C21.812 5.18277 21.9399 5.06155 22.027 4.91193C22.116 4.76042 22.1605 4.59848 22.1605 4.42614V3.86364C22.1302 3.89394 22.0715 3.92235 21.9844 3.94886C21.8991 3.97348 21.8016 3.99527 21.6918 4.0142C21.5819 4.03125 21.4749 4.04735 21.3707 4.0625C21.2666 4.07576 21.1795 4.08712 21.1094 4.09659C20.9446 4.11742 20.794 4.15246 20.6577 4.2017C20.5232 4.25095 20.4152 4.32197 20.3338 4.41477C20.2543 4.50568 20.2145 4.62689 20.2145 4.77841C20.2145 4.98864 20.2921 5.14773 20.4474 5.25568C20.6027 5.36174 20.8007 5.41477 21.0412 5.41477ZM24.9908 3.40909V6H24.1413V1.63636H24.9567V2.34659H25.0107C25.111 2.11553 25.2682 1.92992 25.4822 1.78977C25.6982 1.64962 25.9699 1.57955 26.2976 1.57955C26.5949 1.57955 26.8554 1.64205 27.0788 1.76705C27.3023 1.89015 27.4756 2.07386 27.5987 2.31818C27.7218 2.5625 27.7834 2.86458 27.7834 3.22443V6H26.9339V3.3267C26.9339 3.01042 26.8516 2.76326 26.6868 2.58523C26.522 2.4053 26.2957 2.31534 26.0078 2.31534C25.8108 2.31534 25.6357 2.35795 25.4822 2.44318C25.3307 2.52841 25.2105 2.65341 25.1214 2.81818C25.0343 2.98106 24.9908 3.17803 24.9908 3.40909ZM30.7607 6.08807C30.3383 6.08807 29.9747 5.99242 29.6697 5.80114C29.3667 5.60795 29.1338 5.34186 28.9709 5.00284C28.808 4.66383 28.7266 4.27557 28.7266 3.83807C28.7266 3.39489 28.8099 3.00379 28.9766 2.66477C29.1432 2.32386 29.3781 2.05777 29.6811 1.86648C29.9841 1.67519 30.3411 1.57955 30.7521 1.57955C31.0836 1.57955 31.379 1.6411 31.6385 1.7642C31.898 1.88542 32.1072 2.05587 32.2663 2.27557C32.4273 2.49527 32.523 2.75189 32.5533 3.04545H31.7266C31.6811 2.84091 31.5769 2.66477 31.4141 2.51705C31.2531 2.36932 31.0372 2.29545 30.7663 2.29545C30.5296 2.29545 30.3222 2.35795 30.1442 2.48295C29.968 2.60606 29.8307 2.7822 29.7322 3.01136C29.6338 3.23864 29.5845 3.50758 29.5845 3.81818C29.5845 4.13636 29.6328 4.41098 29.7294 4.64205C29.826 4.87311 29.9624 5.05208 30.1385 5.17898C30.3165 5.30587 30.5258 5.36932 30.7663 5.36932C30.9273 5.36932 31.0732 5.33996 31.2038 5.28125C31.3364 5.22064 31.4472 5.13447 31.5362 5.02273C31.6271 4.91098 31.6906 4.77652 31.7266 4.61932H32.5533C32.523 4.90152 32.4311 5.15341 32.2777 5.375C32.1243 5.59659 31.9188 5.77083 31.6612 5.89773C31.4055 6.02462 31.1054 6.08807 30.7607 6.08807ZM35.3423 6.08807C34.9124 6.08807 34.5421 5.99621 34.2315 5.8125C33.9228 5.62689 33.6842 5.36648 33.5156 5.03125C33.349 4.69413 33.2656 4.29924 33.2656 3.84659C33.2656 3.39962 33.349 3.00568 33.5156 2.66477C33.6842 2.32386 33.919 2.05777 34.2202 1.86648C34.5232 1.67519 34.8774 1.57955 35.2827 1.57955C35.5289 1.57955 35.7675 1.62027 35.9986 1.7017C36.2296 1.78314 36.437 1.91098 36.6207 2.08523C36.8045 2.25947 36.9493 2.4858 37.0554 2.7642C37.1615 3.04072 37.2145 3.37689 37.2145 3.77273V4.07386H33.7457V3.4375H36.3821C36.3821 3.21402 36.3366 3.0161 36.2457 2.84375C36.1548 2.66951 36.027 2.5322 35.8622 2.43182C35.6993 2.33144 35.508 2.28125 35.2884 2.28125C35.0497 2.28125 34.8414 2.33996 34.6634 2.45739C34.4872 2.57292 34.3509 2.72443 34.2543 2.91193C34.1596 3.09754 34.1122 3.29924 34.1122 3.51705V4.0142C34.1122 4.30587 34.1634 4.55398 34.2656 4.75852C34.3698 4.96307 34.5147 5.11932 34.7003 5.22727C34.8859 5.33333 35.1027 5.38636 35.3509 5.38636C35.5118 5.38636 35.6586 5.36364 35.7912 5.31818C35.9238 5.27083 36.0384 5.20076 36.1349 5.10795C36.2315 5.01515 36.3054 4.90057 36.3565 4.7642L37.1605 4.90909C37.0961 5.14583 36.9806 5.35322 36.8139 5.53125C36.6491 5.70739 36.4418 5.8447 36.1918 5.94318C35.9437 6.03977 35.6605 6.08807 35.3423 6.08807Z" fill="#D9D9D9"/>
</svg>
