<svg width="25" height="8" viewBox="0 0 25 8" fill="none" xmlns="http://www.w3.org/2000/svg">
<path d="M0.639205 7V1.18182H2.71307C3.16572 1.18182 3.54072 1.2642 3.83807 1.42898C4.13542 1.59375 4.35795 1.81913 4.50568 2.10511C4.65341 2.3892 4.72727 2.70928 4.72727 3.06534C4.72727 3.4233 4.65246 3.74527 4.50284 4.03125C4.35511 4.31534 4.13163 4.54072 3.83239 4.70739C3.53504 4.87216 3.16098 4.95455 2.71023 4.95455H1.28409V4.21023H2.63068C2.91667 4.21023 3.14867 4.16098 3.3267 4.0625C3.50473 3.96212 3.63542 3.82576 3.71875 3.65341C3.80208 3.48106 3.84375 3.28504 3.84375 3.06534C3.84375 2.84564 3.80208 2.65057 3.71875 2.48011C3.63542 2.30966 3.50379 2.17614 3.32386 2.07955C3.14583 1.98295 2.91098 1.93466 2.61932 1.93466H1.51705V7H0.639205ZM5.68821 7V2.63636H6.50923V3.32955H6.55469C6.63423 3.0947 6.77438 2.91004 6.97514 2.77557C7.17779 2.6392 7.40696 2.57102 7.66264 2.57102C7.71567 2.57102 7.77817 2.57292 7.85014 2.5767C7.92401 2.58049 7.98177 2.58523 8.02344 2.59091V3.40341C7.98935 3.39394 7.92874 3.38352 7.84162 3.37216C7.7545 3.3589 7.66738 3.35227 7.58026 3.35227C7.3795 3.35227 7.20052 3.39489 7.04332 3.48011C6.88802 3.56345 6.76491 3.67992 6.67401 3.82955C6.5831 3.97727 6.53764 4.14583 6.53764 4.33523V7H5.68821ZM10.4403 7.08807C10.0313 7.08807 9.67424 6.99432 9.36932 6.80682C9.06439 6.61932 8.82765 6.35701 8.65909 6.01989C8.49053 5.68277 8.40625 5.28883 8.40625 4.83807C8.40625 4.38542 8.49053 3.98958 8.65909 3.65057C8.82765 3.31155 9.06439 3.0483 9.36932 2.8608C9.67424 2.6733 10.0313 2.57955 10.4403 2.57955C10.8494 2.57955 11.2064 2.6733 11.5114 2.8608C11.8163 3.0483 12.053 3.31155 12.2216 3.65057C12.3902 3.98958 12.4744 4.38542 12.4744 4.83807C12.4744 5.28883 12.3902 5.68277 12.2216 6.01989C12.053 6.35701 11.8163 6.61932 11.5114 6.80682C11.2064 6.99432 10.8494 7.08807 10.4403 7.08807ZM10.4432 6.375C10.7083 6.375 10.928 6.30492 11.1023 6.16477C11.2765 6.02462 11.4053 5.83807 11.4886 5.60511C11.5739 5.37216 11.6165 5.11553 11.6165 4.83523C11.6165 4.55682 11.5739 4.30114 11.4886 4.06818C11.4053 3.83333 11.2765 3.64489 11.1023 3.50284C10.928 3.3608 10.7083 3.28977 10.4432 3.28977C10.1761 3.28977 9.95455 3.3608 9.77841 3.50284C9.60417 3.64489 9.47443 3.83333 9.3892 4.06818C9.30587 4.30114 9.2642 4.55682 9.2642 4.83523C9.2642 5.11553 9.30587 5.37216 9.3892 5.60511C9.47443 5.83807 9.60417 6.02462 9.77841 6.16477C9.95455 6.30492 10.1761 6.375 10.4432 6.375ZM15.4993 2.63636V3.31818H13.0334V2.63636H15.4993ZM13.7095 7V2.13068C13.7095 1.85795 13.7692 1.63163 13.8885 1.4517C14.0078 1.26989 14.166 1.13447 14.3629 1.04545C14.5599 0.954545 14.7739 0.909091 15.005 0.909091C15.1754 0.909091 15.3213 0.923295 15.4425 0.951705C15.5637 0.97822 15.6536 1.00284 15.7124 1.02557L15.5135 1.71307C15.4737 1.7017 15.4226 1.68845 15.3601 1.6733C15.2976 1.65625 15.2218 1.64773 15.1328 1.64773C14.9264 1.64773 14.7786 1.69886 14.6896 1.80114C14.6025 1.90341 14.5589 2.05114 14.5589 2.24432V7H13.7095ZM16.3757 7V2.63636H17.2251V7H16.3757ZM16.8047 1.96307C16.657 1.96307 16.5301 1.91383 16.424 1.81534C16.3198 1.71496 16.2678 1.59564 16.2678 1.45739C16.2678 1.31723 16.3198 1.19792 16.424 1.09943C16.5301 0.999053 16.657 0.948864 16.8047 0.948864C16.9524 0.948864 17.0784 0.999053 17.1825 1.09943C17.2886 1.19792 17.3416 1.31723 17.3416 1.45739C17.3416 1.59564 17.2886 1.71496 17.1825 1.81534C17.0784 1.91383 16.9524 1.96307 16.8047 1.96307ZM19.2173 1.18182V7H18.3679V1.18182H19.2173ZM22.2408 7.08807C21.8108 7.08807 21.4406 6.99621 21.13 6.8125C20.8213 6.62689 20.5826 6.36648 20.4141 6.03125C20.2474 5.69413 20.1641 5.29924 20.1641 4.84659C20.1641 4.39962 20.2474 4.00568 20.4141 3.66477C20.5826 3.32386 20.8175 3.05777 21.1186 2.86648C21.4216 2.67519 21.7758 2.57955 22.1811 2.57955C22.4273 2.57955 22.666 2.62027 22.897 2.7017C23.1281 2.78314 23.3355 2.91098 23.5192 3.08523C23.7029 3.25947 23.8478 3.4858 23.9538 3.7642C24.0599 4.04072 24.1129 4.37689 24.1129 4.77273V5.07386H20.6442V4.4375H23.2805C23.2805 4.21402 23.2351 4.0161 23.1442 3.84375C23.0533 3.66951 22.9254 3.5322 22.7607 3.43182C22.5978 3.33144 22.4065 3.28125 22.1868 3.28125C21.9482 3.28125 21.7398 3.33996 21.5618 3.45739C21.3857 3.57292 21.2493 3.72443 21.1527 3.91193C21.058 4.09754 21.0107 4.29924 21.0107 4.51705V5.0142C21.0107 5.30587 21.0618 5.55398 21.1641 5.75852C21.2682 5.96307 21.4131 6.11932 21.5987 6.22727C21.7843 6.33333 22.0012 6.38636 22.2493 6.38636C22.4103 6.38636 22.5571 6.36364 22.6896 6.31818C22.8222 6.27083 22.9368 6.20076 23.0334 6.10795C23.13 6.01515 23.2038 5.90057 23.255 5.7642L24.0589 5.90909C23.9946 6.14583 23.879 6.35322 23.7124 6.53125C23.5476 6.70739 23.3402 6.8447 23.0902 6.94318C22.8421 7.03977 22.5589 7.08807 22.2408 7.08807Z" fill="#D9D9D9"/>
</svg>
